# xmcd
#
# Track frame offsets:
#	150
#	8400
#	34762
#	56913
#	78467
#	100623
#	123221
#	149375
#	179178
#
# Disc length: 2676 seconds
#
# Revision: 1
# Processed by: cddbd v1.5.1PL2 Copyright (c) Steve Scherf et al.
# Submitted via: EasyCDDAExtractor 8.0.2.1
#
DISCID=720a7209
DTITLE=Deep Purple - Hala Rondo Brno 22-02-06 Disc 1
DYEAR=2006
DGENRE=Hard Rock
TTITLE0=Intro
TTITLE1=Pictures Of Home
TTITLE2=Things I Never Said
TTITLE3=Wrong Man
TTITLE4=Ted The Mechanic
TTITLE5=Living Wreck
TTITLE6=Rapture Of The Deep
TTITLE7=Before Time Began
TTITLE8=Mary Long
EXTD=
EXTT0=
EXTT1=
EXTT2=
EXTT3=
EXTT4=
EXTT5=
EXTT6=
EXTT7=
EXTT8=
PLAYORDER=
